# xmcd
#
# Track frame offsets:
#	150
#	29688
#	62941
#	89967
#
# Disc length: 1463 seconds
#
# Revision: 1
# Processed by: cddbd v1.5PL3 Copyright (c) Steve Scherf et al.
# Submitted via: audiograbber 1.80
#
DISCID=3b05b504
DTITLE=Cradle Of Filth - Total Fucking Darkness (Demo)
DYEAR=1900
DGENRE=
TTITLE0=Black Goddess Rises
TTITLE1=Unbridled At Dusk
TTITLE2=The Raping Of Faith
TTITLE3=As Deep As Any Burial And Fraternally Yours, 666 (Outro)
EXTD=
EXTT0=
EXTT1=
EXTT2=
EXTT3=
PLAYORDER=
